<svg xmlns="http://www.w3.org/2000/svg" viewBox="0 0 579.45 89.04"><defs><style>.cls-1{fill:#921c1e;}.cls-2{fill:#fff;}.cls-3{fill:#931c1e;}.cls-4{fill:#404041;}</style></defs><g id="Layer_2" data-name="Layer 2"><g id="Layer_1-2" data-name="Layer 1"><path class="cls-1" d="M89,44.53A44.52,44.52,0,1,0,44.51,89,44.55,44.55,0,0,0,89,44.53Z"></path><path class="cls-2" d="M71.46,39.36a113.17,113.17,0,0,0-6.85,28.56,26.47,26.47,0,0,1-2.4,7.73c-1.52,3.48-4.78,4-6.76.83-2.22-3.54-3.6-7.6-5.3-11.47-1-2.23-1.58-4.63-2.74-6.72-1.57-2.75-4-2.75-5.55,0A55.7,55.7,0,0,0,39,65c-1.34,3.35-2.65,6.74-4.07,10a7.27,7.27,0,0,1-1.65,2.14c-2,2-4.66,1.82-5.74-.67-1.49-3.49-3-7.16-3.35-10.88C22.27,53.84,21.15,48.51,18,40.32a28.28,28.28,0,0,1-1.1-17.07c1.7-6.93,6.69-10.42,13.79-9.5,3.39.44,6.76,1.39,10.14,1.41,9.48.79,15.08-1.55,22-1.25,4.64.4,7.45,3.42,8.8,7.61C72.62,24.26,74,32.83,71.46,39.36Z"></path><path class="cls-3" d="M61.5,43.88a2.11,2.11,0,0,1-2.07,2.44,26.46,26.46,0,0,0-4.36.35,70.41,70.41,0,0,0-9.42,1.74,19.2,19.2,0,0,0-3.91,1A14.19,14.19,0,0,1,38.3,55c-1.54,1.51-2.38,2.32-2.53,2.44C32.4,58.87,30.48,59.39,30,59c-.62-.47-.24-1.34,1.14-2.62.62-1,1.15-1.5,1.61-1.39a2.9,2.9,0,0,1,.69.35,7.16,7.16,0,0,0,2.07-2.26,9,9,0,0,1,1.15-1.92c-1.23.34-2.3.7-3.22,1s-1.38.59-1.38.7a4.45,4.45,0,0,1-3.44-.34c-.93-.59-1.61-1.06-2.07-1.4-1.38-1.39-1.69-2.33-.92-2.79a6.24,6.24,0,0,1,2.3-.7A31.92,31.92,0,0,0,33.47,46a41.61,41.61,0,0,0,6.43-3.83c.31-.58.15-.82-.46-.7a5.49,5.49,0,0,0-2.29,1.39,5.69,5.69,0,0,1-3.45.87,3.3,3.3,0,0,1-2.53-1.56,3.61,3.61,0,0,1,.23-3A1.37,1.37,0,0,1,33,38.31a16.46,16.46,0,0,1,1.84-1.57,4.63,4.63,0,0,1,1.38-.87,17.59,17.59,0,0,1-2.07-5.57c-.46-2.22-.69-3.37-.69-3.49-1.53-2.1-1.61-3.31-.23-3.66S37,23.09,39.9,24c2,.69,2.84,1.51,2.53,2.44a7.16,7.16,0,0,0-.23,3.14c.31,0,.46-.24.46-.7s.46-.7,1.38-.7A4.75,4.75,0,0,0,45,26.46l.46-.7c-2-.12-3.29-.7-3.91-1.74s-.23-1.75,1.61-1.75a16.94,16.94,0,0,0,4.82-1q1.85-.87,4.83.35Q56.22,22.8,56,24.36a3.5,3.5,0,0,1-1.84,2.1,7.15,7.15,0,0,0-1.61,1.22c-.76.7-1.15,1.1-1.15,1.22,1.07,1,1.23,1.92.46,2.61a5,5,0,0,1-3.68.52,40.09,40.09,0,0,0-4.13.7,4,4,0,0,0-2.3,1c0,.48.23.59.69.36s1,.34,1.61,1.74A32.46,32.46,0,0,1,49.55,34a5.27,5.27,0,0,1,4.14,1.22q1.61,1.39-1.38,3.48a53.28,53.28,0,0,1-6.43,3.84c.3.23,1.53.12,3.67-.35L56,40.75a4,4,0,0,1,3,.69A6,6,0,0,1,61.5,43.88Zm-20.67-7a9.6,9.6,0,0,0-2.76.35c-.77.12-1.23,0-1.38-.35a9.14,9.14,0,0,0-1.61.87c-.31.23-.38.41-.23.53a21.68,21.68,0,0,0,3.68-.7A16.59,16.59,0,0,1,40.83,36.91Zm3.67,1.74a.91.91,0,0,0-.92.53c-.16.23-.16.4,0,.52a2.67,2.67,0,0,0,.69-.7Zm14.7,16Q61,59,58.28,59.74q-2.74.87-4.13-1.22A9.77,9.77,0,0,1,52.31,55c-.46-1.16-.61-1.74-.46-1.74q-.69-3,1.84-2.44T59.2,54.68Z"></path><path class="cls-4" d="M139.3,16.43q2.44-.29,5.9-.54c2.31-.17,4.56-.25,6.77-.25q13.6,0,20.33,6.91T179,42.41q0,13.53-6.87,20.08T151.68,69c-2.26,0-4.48-.08-6.69-.25s-4.1-.38-5.69-.61Zm7.34,45.7c.67.1,1.5.18,2.49.25s2,.11,3.13.11a28.7,28.7,0,0,0,7.73-1,14.5,14.5,0,0,0,6-3.28A14.83,14.83,0,0,0,169.89,52a30.27,30.27,0,0,0,1.37-9.83A27.5,27.5,0,0,0,169.89,33,16.13,16.13,0,0,0,166,26.76a14.7,14.7,0,0,0-5.94-3.49,25.49,25.49,0,0,0-7.63-1.08l-3,0a19,19,0,0,0-2.85.26Z"></path><path class="cls-4" d="M189,31.26c.53-.1,1-.17,1.51-.22A14.58,14.58,0,0,1,192,31c.53,0,1.06,0,1.59.07a11.5,11.5,0,0,1,1.44.22c.14.72.28,1.66.43,2.84a25.82,25.82,0,0,1,.21,3,14.92,14.92,0,0,1,4-4.25A10.58,10.58,0,0,1,206,31c.38,0,.77,0,1.18,0s.76.06,1.05.1a11.55,11.55,0,0,1,.21,1.37,14.58,14.58,0,0,1,.07,1.51,16,16,0,0,1-.1,1.8c-.07.63-.16,1.23-.26,1.8a5.08,5.08,0,0,0-1.18-.14h-1a12.61,12.61,0,0,0-3.71.54A7.68,7.68,0,0,0,199.14,40a9.45,9.45,0,0,0-2.23,3.74,18.92,18.92,0,0,0-.83,6.11V68.18c-.52.09-1.11.16-1.76.21s-1.23.08-1.76.08-1.12,0-1.76-.08-1.26-.12-1.84-.21Z"></path><path class="cls-4" d="M209,68.18c-.1-.67-.18-1.34-.25-2a18.47,18.47,0,0,1-.11-2,20.42,20.42,0,0,1,.11-2c.07-.7.15-1.38.25-2.06q1-.13,2-.21c.65,0,1.3-.07,2-.07s1.34,0,2,.07,1.35.12,2,.21c.09.68.18,1.35.25,2a18.51,18.51,0,0,1,0,4c-.07.67-.16,1.35-.25,2-.67.09-1.34.16-2,.21s-1.31.08-2,.08-1.34,0-2-.08S209.71,68.27,209,68.18Z"></path><path class="cls-4" d="M245.09,16.36c.72-.1,1.57-.19,2.56-.29s2-.18,3.09-.25,2.16-.13,3.24-.18,2.13-.07,3.13-.07a34.41,34.41,0,0,1,7.52.79,16.91,16.91,0,0,1,6.26,2.73,13.74,13.74,0,0,1,4.29,5.15,18.1,18.1,0,0,1,1.58,8,18.62,18.62,0,0,1-1.69,8.39A14.74,14.74,0,0,1,270.61,46a17.37,17.37,0,0,1-6.3,2.84,31.49,31.49,0,0,1-7.2.83c-.91,0-1.71,0-2.41,0s-1.45-.08-2.26-.18V68.18a30.66,30.66,0,0,1-3.68.21l-1.83,0a17.13,17.13,0,0,1-1.84-.18Zm7.35,26.7c.76.09,1.43.17,2,.21s1.42.08,2.52.08a21.28,21.28,0,0,0,4.42-.47,10.59,10.59,0,0,0,3.93-1.69,8.77,8.77,0,0,0,2.77-3.35,12.57,12.57,0,0,0,1-5.5,12.17,12.17,0,0,0-.9-5,8.36,8.36,0,0,0-2.48-3.24,9.63,9.63,0,0,0-3.82-1.72,21.53,21.53,0,0,0-4.82-.51,42.68,42.68,0,0,0-4.67.22Z"></path><path class="cls-4" d="M303.67,43.85q0-4.24-2.16-5.9a10.15,10.15,0,0,0-6.26-1.66,26.85,26.85,0,0,0-4.71.4,35.62,35.62,0,0,0-4.28,1,11.11,11.11,0,0,1-1.37-5.68,33,33,0,0,1,5.4-1.23,40.41,40.41,0,0,1,5.68-.43q7.2,0,10.94,3.28t3.74,10.47v23.1q-2.52.57-6.11,1.19a44.7,44.7,0,0,1-7.34.61,28.76,28.76,0,0,1-6.37-.65A12.87,12.87,0,0,1,286,66.3,9.59,9.59,0,0,1,283,62.63a12.26,12.26,0,0,1-1.09-5.4,11.17,11.17,0,0,1,1.27-5.43,11.46,11.46,0,0,1,3.41-3.88,15.24,15.24,0,0,1,5-2.31,22.77,22.77,0,0,1,5.9-.75c1.54,0,2.79,0,3.78.11s1.81.15,2.48.25Zm0,7c-.72-.1-1.63-.19-2.73-.29s-2-.14-2.81-.14q-4.45,0-6.8,1.65a5.77,5.77,0,0,0-2.34,5,6.15,6.15,0,0,0,.79,3.38,5.55,5.55,0,0,0,2,1.88,7,7,0,0,0,2.63.79c1,.09,1.87.14,2.73.14a33.67,33.67,0,0,0,3.42-.18,20.45,20.45,0,0,0,3.13-.54Z"></path><path class="cls-4" d="M322.74,36.94h-5.61l-.29-1,12.38-13.81h.57v9.14h9.36a12,12,0,0,1,.29,2.73c0,.53,0,1-.07,1.51a14.32,14.32,0,0,1-.22,1.44h-9.36V53.78a35.67,35.67,0,0,0,.26,4.82,7.07,7.07,0,0,0,.86,2.77,3,3,0,0,0,1.66,1.3,8.83,8.83,0,0,0,2.62.32,14.06,14.06,0,0,0,2.31-.18c.72-.12,1.36-.25,1.94-.39a11.07,11.07,0,0,1,.61,3c.07,1,.11,1.89.11,2.66a23.44,23.44,0,0,1-3,.54,30.19,30.19,0,0,1-3.39.18q-5.17,0-8.09-2.52t-2.92-8.35Z"></path><path class="cls-4" d="M347.14,31.26c.53-.1,1-.17,1.51-.22a14.58,14.58,0,0,1,1.51-.07c.53,0,1.06,0,1.59.07a11.5,11.5,0,0,1,1.44.22c.14.72.28,1.66.43,2.84a25.82,25.82,0,0,1,.21,3,15,15,0,0,1,4-4.25,10.6,10.6,0,0,1,6.37-1.8c.39,0,.79,0,1.19,0s.76.06,1,.1a9.8,9.8,0,0,1,.22,1.37,14.58,14.58,0,0,1,.07,1.51,16,16,0,0,1-.1,1.8c-.08.63-.16,1.23-.26,1.8a5.08,5.08,0,0,0-1.18-.14h-1a12.59,12.59,0,0,0-3.7.54A7.68,7.68,0,0,0,357.32,40a9.57,9.57,0,0,0-2.23,3.74,18.92,18.92,0,0,0-.83,6.11V68.18c-.53.09-1.11.16-1.76.21s-1.24.08-1.76.08-1.12,0-1.76-.08-1.27-.12-1.84-.21Z"></path><path class="cls-4" d="M376.07,36.87h-4.68a8.85,8.85,0,0,1-.21-1.33c-.05-.51-.07-1-.07-1.48s0-1,.07-1.47a8.65,8.65,0,0,1,.21-1.33h11.66V68.18c-.53.09-1.11.16-1.76.21s-1.24.08-1.77.08-1,0-1.68-.08-1.24-.12-1.77-.21Zm-1.58-13.75a13,13,0,0,1-.18-1.87c0-.67,0-1.27,0-1.8s0-1.12,0-1.8a11.38,11.38,0,0,1,.18-1.79c.62-.1,1.29-.17,2-.22s1.35-.07,1.87-.07,1.15,0,1.87.07a19.59,19.59,0,0,1,1.95.22,14.4,14.4,0,0,1,.18,1.79q0,1,0,1.8t0,1.8a16.73,16.73,0,0,1-.18,1.87c-.58.1-1.22.17-1.91.22s-1.3.07-1.83.07-1.23,0-1.95-.07S375.11,23.22,374.49,23.12Z"></path><path class="cls-4" d="M419.25,61.77a11.67,11.67,0,0,1,1,2.52,13.47,13.47,0,0,1,.5,3.09A26.46,26.46,0,0,1,411.05,69c-6.15,0-10.77-1.74-13.9-5.22s-4.67-8.17-4.67-14.07a24.4,24.4,0,0,1,1.15-7.63A17.31,17.31,0,0,1,397.05,36a16.08,16.08,0,0,1,5.65-4.11,19.17,19.17,0,0,1,7.84-1.51,34.9,34.9,0,0,1,5.33.36,22.65,22.65,0,0,1,4.39,1.15,15.21,15.21,0,0,1-.32,2.85,12.31,12.31,0,0,1-.91,2.84A24.38,24.38,0,0,0,411,36.37q-5.54,0-8.27,3.66c-1.83,2.45-2.73,5.69-2.73,9.72q0,6.91,3.09,10.11c2.06,2.14,4.89,3.2,8.49,3.2a26,26,0,0,0,4-.28A18,18,0,0,0,419.25,61.77Z"></path><path class="cls-4" d="M428.75,15.42a16.69,16.69,0,0,1,1.76-.21c.65-.05,1.24-.07,1.76-.07s1.13,0,1.81.07a16.37,16.37,0,0,1,1.79.21V68.18c-.53.09-1.12.16-1.79.21s-1.28.08-1.81.08-1.11,0-1.76-.08-1.23-.12-1.76-.21ZM437.82,49l11.73-17.77c.62-.1,1.24-.17,1.87-.22s1.27-.07,1.94-.07,1.4,0,2.05.07,1.31.12,2,.22L445.66,48.53l13.75,19.65q-1,.13-2,.21c-.62,0-1.27.08-1.94.08s-1.34,0-2-.08-1.35-.12-2-.21Z"></path><path class="cls-4" d="M479.27,16.43a15.05,15.05,0,0,1,2-.21c.79,0,1.53-.08,2.19-.08s1.36,0,2.06.08a16.71,16.71,0,0,1,1.9.21l8.86,43.11,10.65-43.11a16.71,16.71,0,0,1,1.9-.21c.7,0,1.36-.08,2-.08s1.23,0,1.95.08a14.54,14.54,0,0,1,1.87.21L525.33,60l9-43.54a13.93,13.93,0,0,1,1.69-.21c.6,0,1.19-.08,1.76-.08s1.35,0,2.05.08a14.44,14.44,0,0,1,1.84.21L529.22,68.18c-.58.09-1.25.16-2,.21s-1.46.08-2.09.08-1.41,0-2.22-.08-1.57-.12-2.24-.21L510.43,27.66,500.07,68.18c-.67.09-1.4.16-2.2.21s-1.52.08-2.19.08-1.23,0-2-.08-1.4-.12-2-.21Z"></path><path class="cls-4" d="M548.93,31.26a16.42,16.42,0,0,1,1.8-.22C551.4,31,552,31,552.46,31s1.12,0,1.8.07a16.42,16.42,0,0,1,1.8.22V51.48a20.89,20.89,0,0,0,.65,5.72,8,8,0,0,0,1.94,3.56,6.81,6.81,0,0,0,3.17,1.8,16.41,16.41,0,0,0,4.31.5,21.53,21.53,0,0,0,6.26-.79v-31a16.56,16.56,0,0,1,1.76-.22c.66-.05,1.24-.07,1.77-.07s1.11,0,1.77.07a16.56,16.56,0,0,1,1.76.22V67c-1.68.49-3.69.94-6,1.37a39.57,39.57,0,0,1-7.22.65,35.31,35.31,0,0,1-6.66-.61A12.67,12.67,0,0,1,554,65.94a12.36,12.36,0,0,1-3.74-5.25,24.22,24.22,0,0,1-1.37-8.92Z"></path></g></g></svg>